<?xml version="1.0" encoding="UTF-8"?>
<svg id="Layer_1" xmlns="http://www.w3.org/2000/svg" viewBox="0 0 182.46 182.46"><defs><style>.cls-1{fill:#fff;}.cls-2{fill:#e21a30;}</style></defs><rect class="cls-2" x="1.23" y="1.23" width="180" height="180"/><g><path class="cls-1" d="M80.92,115.47c-3.7-2.6-8.2-3.75-12.29-3.58-4.14,.16-6,3.25-6,3.25-1.87-3.25-5.55-5.24-11.25-5.2-9.21,.11-18.34,4.37-25.58,4.37s-12.01-4.37-11.84-12.11c.29-13.59,11.76-25.83,20.34-31.34,4.93-3.16,9.06-4.11,11.76-3.8,1.97,.23,4.34,2.5,2.85,5.85-2.2,4.91-5.23,4.5-5.12,2.15,.07-1.52,1.08-2.48,1.84-3.01,.49-.33,1.34-.43,1.78-.44,.44-.37,.77-3.05-2.77-2.16-3.53,.89-7.78,4.35-11.83,8.82-4.06,4.48-10.36,12.96-11.92,21.85-.73,4.13-.24,11.64,9.53,11.55,8.29-.06,20.51-5.52,31.74-5.42,4.36,.03,8.15,1.21,11.11,3.04,2.91,1.79,6.4,4.41,7.63,6.19Zm2.66-24.62h1.69s-8.51,12.29-13.32,11.74c-2.68-.31-1.88-3.63-1.88-3.63,0,0-3.78,4.42-7.23,3.54-3.14-.81-1.12-6.03-1.12-6.03-.36,.15-7.15,7.81-11.93,5.97-4.99-1.92-2.41-8.34-1.45-10.26,.8-1.63,1.69-3.21,1.69-3.21,0,0-.77,.22-1.24,.33-.48,.11-1.21,.25-1.21,.25,0,0-2.36,3.84-3.81,5.76-1.44,1.91-7.58,8.51-11.2,7.2-3.62-1.31-2.72-6.37-.69-10.4,3.29-6.52,11.11-14.53,15.82-13.34,4.76,1.21,.83,8.94,.83,8.94,0,0,.93,.12,3.2-1.43,3.27-2.23,7.58-8.23,12.25-7.52,2.18,.32,4.23,2.57,1.44,6.85-.9,1.37-2.39,2.6-3.55,1.39-.71-.74-.09-2.12,.67-3.06,1.06-1.34,2.52-1.16,2.52-1.16,0,0,.77-1.77-1.19-1.74-1.59,.03-5.6,3.73-7.88,7.48-2.08,3.43-5.23,9.28-2.06,10.56,2.9,1.17,8.42-5.39,10.98-8.82,2.56-3.44,8.39-11.23,13.27-11.55,1.67-.12,2.68,1.42,2.68,1.42l.56-.9h4.88s-9.2,15.38-9.92,16.53c-.57,.92-1.31,2.96,.77,1.81,2.09-1.15,6.43-6.72,6.43-6.72Zm-37.9-1.57c-.08-.02-1.3-.38-2.51-1.15-1.2-.77-1.75-1.91-1.8-1.99-.04-.08-.09-.02-.14,.05-.04,.07-.3,.4-2.05,2.95-1.74,2.56-4.32,7.8-1.91,8.69,1.55,.57,4.15-2.15,5.56-3.95,1.3-1.67,2.86-4.23,2.92-4.39,.06-.16,0-.19-.09-.22Zm1.94-8.17c-1.29-.97-4.55,1.3-4.56,3.62-.02,2.37,2.94,3.05,3.32,3.06,0,0,.34,.09,.47-.19,.09-.17,.49-.92,.94-2.09,.45-1.18,1.03-3.49-.17-4.4Zm24.88,12.8c1.98-2.7,7.4-12.18,7.4-12.18,0,0-.09-.67-.72-.69-.76-.04-2,.22-4.5,3.34-2.5,3.12-4.43,5.62-5.83,8.2-1.54,2.83-2.22,4.81-1.33,5.36,.25,.15,.63,.16,.93,.09,.58-.15,1.33-.72,2.37-1.93,.49-.55,1.04-1.3,1.68-2.19Zm21.94-14.67h-4.64l-2.61,4.24h4.64l2.62-4.24Zm68.45-7.62c-3.42,2.21-8.18,4.2-12.74,3.76-1.15,1.19-2.38,2.58-3.63,4.09,7.92,1.56,14.84-3.34,18.53-7.52,2.3-2.61,3.43-4.94,3.43-4.94,0,0-2.2,2.42-5.59,4.61Zm-13.56,35.96c-.66,1.05-1.4,3.06,.76,1.81,2.63-1.53,6.4-7.24,6.4-7.24h1.7s-2.24,3.55-5.16,6.78c-2.68,2.97-5.94,5.66-8.24,5.4-2.69-.31-1.86-3.84-1.86-3.84,0,0-3.85,4.09-6.5,3.81-3.59-.4-2.49-4.84-2.49-4.84,0,0-4.06,4.99-6.82,4.84-4.34-.25-3.26-5.55-2.05-9.25,.66-1.99,1.26-3.55,1.26-3.55,0,0-.44,.11-1.36,.25-.49,.07-1.37,.12-1.37,.12,0,0-1.81,3.19-3.25,5.11-1.45,1.92-7.58,8.51-11.19,7.21-3.35-1.22-2.25-6.34-.3-10.4,2.83-5.93,10.81-14.45,15.42-13.33,4.77,1.16,.11,9.87,.11,9.87,0,0,0,.03,.05,.05,.1,.04,.34,.06,.91-.05,.92-.17,1.75-.52,1.75-.52,0,0,4.8-10.05,10.1-16.63,5.29-6.57,15.86-17.9,20.01-15.16,1.02,.67,.56,2.99-.81,5.81-.6,.18-1.24,.36-1.88,.49,.92-1.66,1.53-3.06,1.7-4.04,.62-3.39-7.31,3.77-12.97,11.47-5.66,7.71-9.06,14.7-9.06,14.7,0,0,1.15-.65,2.93-2.08,1.86-1.5,4.41-3.85,7.19-6.73,1.87-1.93,4.07-4.35,6.12-7.06,.61-.03,1.21-.09,1.8-.18-2.29,3.09-4.71,5.91-6.75,7.99-2.25,2.29-4.7,4.75-6.83,6.54-3.38,2.84-6,4.46-6,4.46,0,0-4.96,9.98-2.27,10.64,1.59,.38,4.72-4.45,4.72-4.45,0,0,4.08-6.24,6.54-9.04,3.36-3.82,6.24-6.02,9.13-6.08,1.69-.02,2.68,1.77,2.68,1.77l.79-1.23h4.88s-9.1,15.45-9.83,16.61Zm-27.42-6.08c-.09-.03-1.14-.52-2.24-1.43-1.1-.92-1.65-1.96-1.69-2.04-.04-.08-.09-.02-.14,.05-.05,.06-.25,.22-1.99,2.79-1.73,2.56-4.4,7.83-1.98,8.73,1.54,.57,4.12-2.14,5.53-3.94,1.3-1.67,2.52-3.8,2.59-3.94,.07-.15,0-.2-.07-.22Zm2.46-4.32c.45-1.18,1.02-3.48-.18-4.39-1.27-.97-4.53,1.29-4.55,3.6-.02,2.38,2.3,3.46,2.85,3.6,.32,.09,.43,.08,.58-.18,.1-.17,.84-1.46,1.29-2.64Zm28-3.26c.1-.18,.14-.33,.14-.33,0,0-.09-.66-.73-.69-.75-.03-1.78,.11-4.47,3.09-2.69,2.97-4.32,5.56-5.73,8.14-1.54,2.83-2.15,4.92-1.27,5.47,.25,.14,.63,.17,.93,.09,.6-.15,1.28-.7,2.32-1.91,.49-.55,1.03-1.35,1.66-2.24,1.77-2.43,6.25-10.07,7.14-11.62Zm10.52-22.3c-3.42,2.21-8.18,4.2-12.74,3.76-1.15,1.19-2.38,2.58-3.63,4.09,7.92,1.56,14.84-3.34,18.53-7.52,2.3-2.61,3.43-4.94,3.43-4.94,0,0-2.2,2.42-5.59,4.61Zm-22.24,5.75c-3.75-1.92-6.47-4.26-9.32-5.73-2.73-1.39-4.48-1.97-6.68-1.67-.37,.04-.91,.22-.91,.22,0,0,1.13,3.86-3.36,10.35-4.56,6.58-8.69,6.55-9.87,4.72-1.23-1.9,.35-5.79,3.01-9.25,2.78-3.62,7.66-6.63,7.66-6.63,0,0-1.55-.95-5.38,1.22-3.73,2.11-10.15,7.14-16.1,15.62-5.95,8.47-7.13,13.14-7.99,16.81-.86,3.67-.07,7.61,4,7.61s8.81-6.21,10.15-8.37c2.47-4.03,4.09-10.19,.72-9.34-1.67,.41-3.02,2.26-3.87,4.04-.88,1.82-1.23,3.56-1.23,3.56,0,0-1.41,.51-3.3,1.92-1.89,1.42-3.13,2.78-3.13,2.78,0,0,.01-2.94,2.35-7.69,2.34-4.75,6.64-6.92,9.06-7.12,2.19-.18,5.05,1.68,2.63,8.55-2.41,6.87-9.54,15.2-17.03,15.31-6.91,.1-11.43-8.73-1.83-24.12,10.63-17.03,23.13-22.25,27.19-22.83,4.06-.59,5.37,1.2,5.37,1.2,0,0,3.4-1.57,7.71-1.28,4.95,.34,8.78,3.84,13.84,6.29-1.32,1.29-2.57,2.6-3.7,3.84Zm-18.44-6.68s-2.9,1.16-6.27,4.87c-3.38,3.73-5.33,7.89-3.88,9,.56,.42,1.84,.49,4.18-1.61,1.81-1.64,3.67-3.78,4.94-6.85,1.5-3.68,1.03-5.36,1.03-5.41Z"/><path class="cls-1" d="M156.3,110.82c.31,.17,.55,.41,.72,.71,.18,.3,.26,.62,.26,.98s-.09,.68-.26,.98c-.18,.3-.42,.53-.72,.71s-.65,.26-1.02,.26-.72-.09-1.02-.26c-.31-.17-.55-.41-.72-.71s-.26-.62-.26-.98,.09-.68,.26-.98,.42-.54,.72-.71c.31-.17,.65-.26,1.02-.26s.72,.09,1.02,.26Zm-.2,3.05c.24-.13,.43-.32,.56-.56,.13-.24,.2-.51,.2-.81s-.07-.56-.2-.8c-.13-.24-.32-.42-.56-.56-.24-.13-.51-.2-.82-.2s-.58,.07-.82,.2c-.24,.13-.43,.32-.56,.56-.13,.24-.2,.5-.2,.8s.07,.57,.2,.81c.13,.24,.32,.42,.56,.56,.24,.13,.51,.2,.82,.2s.58-.07,.82-.2Zm-.07-1.39c-.06,.09-.14,.16-.24,.21l.46,.68h-.51l-.41-.64h-.34v.64h-.45v-1.76h1.02c.17,0,.31,.05,.41,.16,.1,.11,.15,.24,.15,.4,0,.11-.03,.22-.09,.31Zm-1.05-.14h.48c.06,0,.1-.02,.14-.05,.03-.03,.05-.07,.05-.12s-.02-.09-.05-.12c-.03-.03-.08-.05-.14-.05h-.48v.34Z"/></g></svg>