<?xml version="1.0" encoding="UTF-8"?>
<svg id="Layer_1" xmlns="http://www.w3.org/2000/svg" viewBox="0 0 180 180"><defs><style>.cls-1{fill:#95cd89;}.cls-2{fill:#fff;}.cls-3{fill:#0fa94d;}.cls-4{fill:#fddb00;}</style></defs><rect class="cls-3" x=".02" y="-66.26" width="179.98" height="312.74"/><g><path class="cls-4" d="M120.17,51.01c-2.48-1.56-16.19-5.69-27.12,3.09-4.93,3.96-9.25,10.45-10.25,20.25,20.42-3.09,30.79-13.17,37.37-23.34Z"/><path class="cls-1" d="M112.54,73.81c6.89-6.89,8.9-13.55,8.79-22.24-6.68,10.45-16.89,23.16-37.49,26.07,6.88,5.57,20.77,4.1,28.7-3.83Z"/><g><path class="cls-2" d="M143.27,96.48c-1.04-.09-1.96,.67-2.05,1.71-.1,1.04,.67,1.96,1.71,2.05,1.04,.09,1.96-.67,2.05-1.71,.1-1.04-.67-1.95-1.71-2.05Zm-.32,3.49c-.89-.08-1.55-.86-1.47-1.76,.08-.89,.87-1.55,1.76-1.47,.89,.08,1.55,.87,1.47,1.76-.08,.89-.87,1.55-1.76,1.47Zm.39-2.69c-.24,.03-.44,.06-.62,.1l-.62,1.9,.44-.06,.22-.68c.07,0,.14,0,.21,0,.02,0,.09-.01,.11-.02l.23,.63,.51-.06-.33-.7c.27-.15,.43-.3,.5-.54,.11-.34-.06-.64-.67-.56Zm.26,.56c-.07,.22-.27,.32-.52,.35-.06,0-.13,0-.19,0l.18-.55c.08-.02,.16-.03,.24-.03,.22-.03,.36,.05,.3,.23Z"/><g><path class="cls-2" d="M79.86,96.27c-2.53-3.31-16.75,2-13.86,3.65l1.96,1.51c.43-.45,1.78,2.12,1.7,5.54-.75-.62-1.98-1.07-3.34-1.28,0,.02,0,.04,0,.06-1.02-2.5-3.19-4.55-6.59-6.29-3.03-1.56-4.44-3.44-4.45-5.27-.03-3.57,7.95-7.37,10.89-1.38l.73,1.35,.93-7.69-.17-.12c-6.4-4.6-19.16,.74-19.72,11.54-.18,3.65,2.27,7.22,6.02,9.22,5.15,2.75,6.33,4.47,5.32,7.65-1.71,5.39-11.6,7.46-15.01-1.02l-.48-1.22-2.43,12.14,.21,.12c9.66,5.2,22.37-1.22,24.96-11.67,.21-.84,.34-1.64,.42-2.41,2.33,.17,4.56,1.09,5.82,2.78l8.16-6.46,.27,5.17c-.48-.36-3.61-1.63-5.58,2.11-1.77,3.49-5.23,2.54-5.67,.5l-5.89,6.62c7.89,5.13,11.24-1.4,14.81-6.26,1.26-1.86,2.47,.14,2.54,2.39l5.82-3-1.33-20.76,3.23-1.67,1.28,20.64,5.76-3.11-1.21-22.7-15.14,7.8,.06,1.55Zm-5.88,3.77s6.26-4.32,6.53,2.96l-6.21,5.02c.57-1.21,.15-7.87-.32-7.97Zm-7.27-.55h0Z"/><path class="cls-2" d="M135.18,79.68c-1.63-1.42-6.36-2.26-9.89,2.51l1.64,5.53c.6-5.2,4.74-6.64,4.83-5.77-.1,.82,.48,6.15-6.76,12.59l-2.3-15.09,5.86-3.12,5.25-2.45c1.13-4.42-1.65-6.91-6.85-3.99-6.62,3.67-8.27-.18-2.82-2.93l-3.13-.73c-1.56,2.54-3.63,5.03-6.16,7.3-.16,.15-.41,.36-.6,.53h0c-.14,.12-.28,.24-.42,.36,1.33,1.35,3.73,1.78,6.33,.45,2.6-1.38,5.69-2.78,4.78,1.39l-9.98,5.31c.11-3.33-2.58-4.87-7.1-2.34-2.14,1.19-3.76,1.59-4.79,1.49-2.7,1-5.35,1.57-7.83,1.71-.26,0-.52,.02-.78,.03h0c-.19,0-.39,0-.57,0,.88,2.29,3.85,3.44,7.17,1.75,2.77-1.47,6.11-2.98,4.54,2.33l-7.45,3.97,.18,1.87,19.23-10.23,1.41,10.09c.08,.87-.6,2.15-1.45,3.06-.07,.19,.06,.13,.06,.13,.76-.1,7.06,.67,8.84,1.4,8.24-3.31,12.45-13.79,8.77-17.18Zm-1.26,10h0Z"/><path class="cls-2" d="M112.58,100.24c7.33-5.58,4.09-16.21-5.64-11.65-3.71,1.67-7.82,6.91-4.93,11.02l4.85-3.34c-2.67-6.36,3.43-6.71,3.71-3.04,.37,7.28-9.21,9.78-12.78,8.32l4.95,5.93c6.7-3.73,12.3-5.09,17.34-4.77l2.39-4.24c-4.08-1.94-8.63,1.08-9.89,1.78Z"/></g></g><path class="cls-2" d="M160.33,57.63c-9.97,4.06-21.61,5.95-27.77-2.15-2.74-3.71-3.79-9.23-4.17-16.9-2.19,3.58-5.34,8.52-7.48,11.65-2.76-1.85-18.42-6.66-29.95,3.63-5,4.47-9.21,10.73-10.2,20.7-13.53,1.56-28.39-3.07-45.49-9.71,4.18,34.35-8.89,48.85-15.58,58.99,15.41,.44,31.37,11.68,36.61,17.8,29.72-27.94,59.82-37.38,103.32-31.08-14.21-20.76-5.41-42.01,.71-52.94Zm-67.28-3.54c10.92-8.78,24.63-4.65,27.12-3.09-6.57,10.17-16.94,20.25-37.37,23.34,1-9.8,5.32-16.29,10.25-20.25Zm-37.1,84.02c-3.15-3.1-16.49-13.99-33.97-15.33,7.11-8.71,19.89-30.1,18.72-50.75,60.49,19.82,75.66-12.65,85.21-27.87,.42,3.71,1.05,7.28,2.94,10.78,2.83,5.56,10.83,11.35,29.6,4.2-14.59,28.42-9.12,39.58-8.67,44.07-52.11,1.16-77.5,21.71-93.83,34.9Z"/></g></svg>